<svg xmlns="http://www.w3.org/2000/svg" viewBox="0 0 800 520" role="img" aria-labelledby="title desc">
  <title id="title">Dibujito Arcoiris Magico</title>
  <desc id="desc">Arcoiris infantil con nubes suaves y estrellas.</desc>
  <rect width="800" height="520" fill="#fdf2f8"/>
  <path d="M160 380a240 240 0 0 1 480 0" fill="none" stroke="#ef4444" stroke-width="42" stroke-linecap="round"/>
  <path d="M210 380a190 190 0 0 1 380 0" fill="none" stroke="#f59e0b" stroke-width="42" stroke-linecap="round"/>
  <path d="M260 380a140 140 0 0 1 280 0" fill="none" stroke="#22c55e" stroke-width="42" stroke-linecap="round"/>
  <path d="M310 380a90 90 0 0 1 180 0" fill="none" stroke="#60a5fa" stroke-width="42" stroke-linecap="round"/>
  <g fill="#fff">
    <ellipse cx="190" cy="390" rx="105" ry="55"/>
    <circle cx="130" cy="360" r="48"/>
    <circle cx="208" cy="340" r="62"/>
    <ellipse cx="610" cy="390" rx="105" ry="55"/>
    <circle cx="552" cy="354" r="52"/>
    <circle cx="638" cy="342" r="64"/>
  </g>
  <g fill="#facc15">
    <path d="M120 120l15 32 35 5-25 24 6 35-31-17-31 17 6-35-25-24 35-5z"/>
    <path d="M665 105l12 25 28 4-20 19 5 28-25-13-25 13 5-28-20-19 28-4z"/>
    <path d="M585 215l9 18 20 3-15 14 4 20-18-10-18 10 4-20-15-14 20-3z"/>
  </g>
</svg>
