<svg xmlns="http://www.w3.org/2000/svg" viewBox="0 0 800 520" role="img" aria-labelledby="title desc">
  <title id="title">Dibujito Casita Dulce</title>
  <desc id="desc">Casa infantil con techo rosado, flores y arboles.</desc>
  <rect width="800" height="520" fill="#dcfce7"/>
  <circle cx="105" cy="100" r="42" fill="#fde68a"/>
  <path d="M0 390c120-45 220-25 330 5 130 34 250 26 470-28v153H0z" fill="#86efac"/>
  <g transform="translate(250 180)">
    <path d="M0 135h300v185H0z" fill="#fff7ed" stroke="#9a3412" stroke-width="8"/>
    <path d="M-35 145L150 0l185 145z" fill="#fb7185" stroke="#9a3412" stroke-width="8" stroke-linejoin="round"/>
    <rect x="125" y="220" width="58" height="100" rx="12" fill="#f59e0b" stroke="#9a3412" stroke-width="7"/>
    <rect x="42" y="178" width="62" height="58" rx="10" fill="#bfdbfe" stroke="#9a3412" stroke-width="7"/>
    <rect x="198" y="178" width="62" height="58" rx="10" fill="#bfdbfe" stroke="#9a3412" stroke-width="7"/>
    <path d="M73 178v58M42 207h62M229 178v58M198 207h62" stroke="#9a3412" stroke-width="5"/>
  </g>
  <g fill="#fb7185">
    <circle cx="120" cy="430" r="18"/>
    <circle cx="152" cy="438" r="16"/>
    <circle cx="650" cy="420" r="18"/>
    <circle cx="686" cy="434" r="16"/>
  </g>
</svg>
