<svg xmlns="http://www.w3.org/2000/svg" viewBox="0 0 800 520" role="img" aria-labelledby="title desc">
  <title id="title">Dibujito Sol Feliz</title>
  <desc id="desc">Sol sonriente infantil sobre un cielo claro.</desc>
  <rect width="800" height="520" fill="#bfe9ff"/>
  <path d="M0 405c125-50 225-28 335 0 135 34 250 30 465-30v145H0z" fill="#b8f2c2"/>
  <g transform="translate(400 230)">
    <g stroke="#ffb703" stroke-width="22" stroke-linecap="round">
      <path d="M0-155v-60"/>
      <path d="M0 155v60"/>
      <path d="M155 0h60"/>
      <path d="M-155 0h-60"/>
      <path d="M110-110l42-42"/>
      <path d="M-110 110l-42 42"/>
      <path d="M110 110l42 42"/>
      <path d="M-110-110l-42-42"/>
    </g>
    <circle r="120" fill="#ffd166" stroke="#f59e0b" stroke-width="10"/>
    <circle cx="-42" cy="-22" r="12" fill="#7c2d12"/>
    <circle cx="42" cy="-22" r="12" fill="#7c2d12"/>
    <path d="M-45 35c22 30 68 30 90 0" fill="none" stroke="#7c2d12" stroke-width="12" stroke-linecap="round"/>
    <circle cx="-70" cy="16" r="16" fill="#fb7185" opacity=".65"/>
    <circle cx="70" cy="16" r="16" fill="#fb7185" opacity=".65"/>
  </g>
</svg>
